/* XPM */
static const char * chord_xpm [] = {
"15 17 3 1 ",
"  c #None",
". c #9E9E9E",
"+ c #000000",
"          ++   ",
"          +++  ",
"     ++++ + ++ ",
"    +.  .++    ",
"++++.    .++++ ",
"    +.  .++    ",
"     ++++ +    ",
"     ++++ +    ",
"    +.  .++    ",
"++++.    .++++ ",
"    +.  .++    ",
"     ++++ +    ",
"     ++++ +    ",
"    +.  .++    ",
"++++.    .++++ ",
"    +.  .+     ",
"     ++++      "};

