/* XPM */
static const char * create_xpm[] = {
"39 11 4 1",
" 	c None",
".	c #000000",
"+	c #FFFFFF",
"@	c #BDBEBD",
"    ................................   ",
"    .              .               .   ",
"    .   .......    .    .......    .   ",
"   ...  .+.....    .    .++++..   ...  ",
"  ..@.. .+.....  .....  .+...+.  ..@.. ",
"  .@@@. .+.....   ...   .+...+.  .@@@. ",
"  .@@@. .+.....    .    .++++..  .@@@. ",
"  .@@@. .+.....         .+.+...  .@@@. ",
"  .@@@. .+.....         .+..+..  .@@@. ",
"  ..... .+++++.         .+...+.  ..... ",
"        .......         .......        "};
