/* XPM */
static const char * end_xpm[] = {
"28 11 3 1",
" 	c None",
".	c #000000",
"+	c #FFFFFF",
"                            ",
"  ........................  ",
"  .+++++..+.....+..++++...  ",
"  .+......++....+..+...+..  ",
"  .+......+.+...+..+....+.  ",
"  .++++...+..+..+..+....+.  ",
"  .+......+...+.+..+....+.  ",
"  .+......+....++..+...+..  ",
"  .+++++..+.....+..++++...  ",
"  ........................  ",
"                            "};
