/* XPM */
static const char *jack_xpm[] = {
/* columns rows colors chars-per-pixel */
"47 15 6 1 ",
"  c #5DE55B775879",
". c #000000",
"X c #FFFFFF",
"o c #A454A0E29D89",
"O c #833A7FA57BEC",
"C c #None",
/* pixels */
"o.........................oCCCCCCCCCCCCCCCCCCCC",
"...........................CCCCCCCCCCCCCCCCCCCC",
".....X...X...oXXXX.X . X ..oCCCCCCCCCCCCCCCCCCC",
".....X..OXO..X ....X .X ... OOoOOO . OCCo OCCCC",
".....X..X.X..X.....XoXO....OXXXXXXo oOOO Xo oCC",
".....X. X.X .X.....XXX.....OXXXXXXo.XoXXoXXXOoo",
".....X.oXXXo.X.....XXXO.... oOOOOO .  OoOoOOXXO",
".... X.XO.oX.X ....X .X .... .   ......  O     ",
"..XXXoOX...XOoXXXX.X . X ...OOooOo .  ooOoXooOC",
"...........................OoXXXXXo.o OOOXoOoCC",
"........................... oooOOOO.OoCCoOoCCCC",
"....     . .    .   .   ...OCCCCCCCCCCCCCCCCCCC",
"..  O O.   O         .   ..oCCCCCCCCCCCCCCCCCCC",
"...........................CCCCCCCCCCCCCCCCCCCC",
"o.........................oCCCCCCCCCCCCCCCCCCCC"
};
