/* XPM */
static const char *jack_xpm[] = {
/* columns rows colors chars-per-pixel */
"32 16 59 1 ",
"  c #0E0E0E",
". c #171715",
"X c #1E1C18",
"o c #25211B",
"O c #28241D",
"+ c #342F26",
"@ c #322E28",
"# c #383734",
"$ c #3E3A34",
"% c #4C4437",
"& c #47433D",
"* c #47443F",
"= c #4D4538",
"- c #4F4D4B",
"; c #555044",
": c #595040",
"> c #595041",
", c #555149",
"< c #5E564B",
"1 c #655D4E",
"2 c #676055",
"3 c #696053",
"4 c #69665F",
"5 c #646464",
"6 c #6C6966",
"7 c #797165",
"8 c #7F7669",
"9 c #7D766C",
"0 c #7E7970",
"q c #7D7972",
"w c #817A6C",
"e c #847C70",
"r c #817D76",
"t c #888379",
"y c #8A867F",
"u c gray54",
"i c #99938A",
"p c #9C9488",
"a c #9B9892",
"s c #A59E93",
"d c #A29F9B",
"f c #A5A097",
"g c #A7A29A",
"h c #AAA49A",
"j c #ADA79E",
"k c #B1AEA9",
"l c #BCB9B3",
"z c #BDBAB6",
"x c #BFBEBC",
"c c #C1BBB1",
"v c #C2BDB4",
"b c #C3C0BC",
"n c #D3D2D2",
"m c #D8D8D8",
"M c #E5E4E2",
"N c #F5F5F4",
"B c #FBFBFA",
"V c gray100",
"C c None",
/* pixels */

"CCCCCCCCCCCCCCCCCCCCCCCCCCCCCCCC",
"CCCCCCCCCCCCCCCCCCCCCCCCCCCCCCCC",
"*****CCCCCCCCCCCCCCCCCCCCCCCCCCC",
"55555,CCCCCCCCCCCCCCCCCCCCCCCCCC",
"55555xbzzzzzzzzzzz6dzzzz64CC;CCC",
"-----nVVVVVVVVVVVVumVVVVumNNBVkC",
"@@@@@0733333333333*<3333*aggVilM",
"OOOOO=::::::::::::+%>>>>+=:::::1",
"ooooo%wppppppppppp$9pppp$3vv8esC",
"XXXXXthfffffffffff#rffff#uCCcjCC",
".....0CCCCCCCCCCCCCCCCCCCCCCCCCC",
"     CCCCCCCCCCCCCCCCCCCCCCCCCCC",

"CCCCCCCCCCCCCCCCCCCCCCCCCCCCCCCC",
"CCCCCCCCCCCCCCCCCCCCCCCCCCCCCCCC",
"CCCCCCCCCCCCCCCCCCCCCCCCCCCCCCCC",
"CCCCCCCCCCCCCCCCCCCCCCCCCCCCCCCC"
};
