/* XPM */
static const char *jack_xpm[] = {
/* columns rows colors chars-per-pixel */
"54 16 5 1 ",
"  c #5DE55B775879",
". c #2B22299427D6",
"X c #F3B0F2FDF257",
"o c #A454A0E29D89",
"O c #833A7FA57BEC",
/* pixels */
"XXXXXXXXXXXXXXXXXXXXXXXXXXXXXXXXXXXXXXXXXXXXXXXXXXXXXX",
"XXXXXXXO.... .. .. . .... . . .. oXXXXXXXXXXXXXXXXXXXX",
"XXXXXXO................ ..........XXXXXXXXXXXXXXXXXXXX",
"oOOOOO .... X...X .. oXXX.X .oX ..oXXXXXXXXXXXXXXXXXXX",
"OXXXXXO.... X. OXO .Xo . .X  XO... OOoOOO . OXXo OXXXX",
"OXXXXXO.... X..X.X. X ... XOXo....OXXXXXXo oOOO Xo oXX",
" XXXXXo....OX.oX.Xo X.....XXX ....OXXXXXXo.XoXXoXXXXoo",
" OOOOO .... X.OXXXO.X.....XXXO.... oOOOOO .  OoOoOOXXO",
".  .. .....OX.XO.oX.XO....XO.XO.... .   ......  O     ",
".     ...OXXO X.. XO oXXX.X . X ...OOooOo .  ooOoXooOX",
" ooooo .. . ....... ..............OoXXXXXo.o OOOXoOoXX",
"OoXXXXO........................... oooOOOO.OoXXoOoXXXX",
" oXXXXO....     . .    .   .   ...OXXXXXXXXXXXXXXXXXXX",
"oooOOO...  O O.   O         .   ..oXXXXXXXXXXXXXXXXXXX",
"XXXXXXo.......................... XXXXXXXXXXXXXXXXXXXX",
"XXXXXXX    .  .   .      .  .    oXXXXXXXXXXXXXXXXXXXX"
};
