/* XPM */
static const char *jack_xpm[] = {
/* columns rows colors chars-per-pixel */
"47 15 6 1 ",
"  c #5DE55B775879",
". c #000000",
"X c #FFFFFF",
"o c #A454A0E29D89",
"O c #833A7FA57BEC",
"C c #None",
/* pixels */
"o.........................oCCCCCCCCCCCCCCCCCCCC",
"...........................CCCCCCCCCCCCCCCCCCCC",
".... X...X .. XXXX.X .oX ..oCCCCCCCCCCCCCCCCCCC",
".... X. OXO .Xo . .X  XO... OOoOOO . OCCo OCCCC",
".... X..X.X. X ... XOXo....OXXXXXXo oOOO Xo oCC",
"....OX.oX.Xo X.....XXX ....OXXXXXXo.XoXXoXXXOoo",
".... X.OXXXO.X.....XXXO.... oOOOOO .  OoOoOOXXO",
"....OX.XO.oX.XO....XO.XO.... .   ......  O     ",
"..XXX  X.. XO XXXX.X . X ...OOooOo .  ooOoXooOC",
"...........................OoXXXXXo.o OOOXoOoCC",
"........................... oooOOOO.OoCCoOoCCCC",
"....     . .    .   .   ...OCCCCCCCCCCCCCCCCCCC",
"..  O O.   O         .   ..oCCCCCCCCCCCCCCCCCCC",
"...........................CCCCCCCCCCCCCCCCCCCC",
"o.........................oCCCCCCCCCCCCCCCCCCCC"
};
