/* XPM */
static const char * mark_left_xpm[] = {
"10 11 3 1",
" 	c None",
".	c #000000",
"+	c #FFFFFF",
"          ",
" ........ ",
" ..+..... ",
" ..+..... ",
" ..+..... ",
" ..+..... ",
" ..+..... ",
" ..+..... ",
" ..+++++. ",
" ........ ",
"          "};
