/* XPM */
static const char * mark_right_xpm[] = {
"12 11 4 1",
" 	c None",
".	c #000000",
"+	c #FFFFFF",
"@      c #00FF00",
"            ",
" ........@@ ",
" ..++++..@@ ",
" ..+...+.@@ ",
" ..+...+.@@ ",
" ..++++..@@ ",
" ..+.+...@@ ",
" ..+..+..@@ ",
" ..+...+.@@ ",
" ........@@ ",
"            "};
