/* XPM */
static const char * mark_right_xpm[] = {
"10 11 3 1",
" 	c None",
".	c #000000",
"+	c #FFFFFF",
"          ",
" ........ ",
" ..++++.. ",
" ..+...+. ",
" ..+...+. ",
" ..++++.. ",
" ..+.+... ",
" ..+..+.. ",
" ..+...+. ",
" ........ ",
"          "};
