/* XPM */
static const char * mark_left_xpm[] = {
"11 11 4 1",
" 	c None",
".	c #000000",
"+	c #FFFFFF",
"@      c #00FF00",
"           ",
" @@....... ",
" @@.+..... ",
" @@.+..... ",
" @@.+..... ",
" @@.+..... ",
" @@.+..... ",
" @@.+..... ",
" @@.+++++. ",
" @@....... ",
"           "};
