/* XPM */
static const char * rewind_xpm[] = {
"23 11 5 1",
" 	c None",
".	c #000000",
"+	c #C6EF94",
"@	c #9CBF74",
"#	c #7B935E",
"           ...    ...  ",
"         ..++.  ..++.  ",
"       ..++@+...++@+.  ",
"     ..++@@@..++@@@+.  ",
"   ..@@@@@..@@@@@@@+.  ",
"  .##@@@@.##@@@@@@@+.  ",
"   ..##@@@..##@@@@@+.  ",
"     ..##@@@..##@@@+.  ",
"       ..##@+...##@+.  ",
"         ..##.  ..##.  ",
"           ...    ...  "};
