/* XPM */
static char *seq42_xpm[] = {
"124 32 3 1",
"0	c #000000",
" 	c None",
"2	c #000000",
"                                                                                                                            ",
"                                                                                                                            ",
"                                                                                                                            ",
"                                                                                                                            ",
"    22222222222222222222    22222222222222222222    22222222222222222222    2222            2222    22222222222222222222    ",
"    22222222222222222222    22222222222222222222    22222222222222222222    2222            2222    22222222222222222222    ",
"    22222222222222222222    22222222222222222222    22222222222222222222    2222            2222    22222222222222222222    ",
"    22222222222222222222    22222222222222222222    22222222222222222222    2222            2222    22222222222222222222    ",
"    2222                    2222                    2222            2222    2222            2222                    2222    ",
"    2222                    2222                    2222            2222    2222            2222                    2222    ",
"    2222                    2222                    2222            2222    2222            2222                    2222    ",
"    2222                    2222                    2222            2222    2222            2222                    2222    ",
"    22222222222222222222    22222222222222222222    2222            2222    22222222222222222222    22222222222222222222    ",
"    22222222222222222222    22222222222222222222    2222            2222    22222222222222222222    22222222222222222222    ",
"    22222222222222222222    22222222222222222222    2222            2222    22222222222222222222    22222222222222222222    ",
"    22222222222222222222    22222222222222222222    2222            2222    22222222222222222222    22222222222222222222    ",
"                    2222    2222                    2222    2222    2222                    2222    2222                    ",
"                    2222    2222                    2222    2222    2222                    2222    2222                    ",
"                    2222    2222                    2222    2222    2222                    2222    2222                    ",
"                    2222    2222                    2222    2222    2222                    2222    2222                    ",
"    22222222222222222222    22222222222222222222    22222222222222222222                    2222    22222222222222222222    ",
"    22222222222222222222    22222222222222222222    22222222222222222222                    2222    22222222222222222222    ",
"    22222222222222222222    22222222222222222222    22222222222222222222                    2222    22222222222222222222    ",
"    22222222222222222222    22222222222222222222    22222222222222222222                    2222    22222222222222222222    ",
"                                                            2222                                                            ",
"                                                            2222                                                            ",
"                                                            2222                                                            ",
"                                                            2222                                                            ",
"                                                                                                                            ",
"                                                                                                                            ",
"                                                                                                                            ",
"                                                                                                                            "
};
