/* XPM */
static const char * seq42_xpm_playlist[] = {
"124 32 4 1",
" 	c None",
".	c None",
"+	c #0000FF",
"#	c #FF0000",
"............................................................................................................................",
"............................................................................................................................",
"............................................................................................................................",
"............................................................................................................................",
"....++++++++++++++++++++....++++++++++++++++++++....++++++++++++++++++++....++++............++++....++++++++++++++++++++....",
"....+###########+++##+++....++++++##########+++##...+++++##++##+++++++++...############...###########++############.++++....",
"....+##++++++++##++##+++....+++++############++##...+++++##++##+++++++++...############..############++############.++++....",
"....+##++++++++##++##+++....+++++##++++++++##++##...+++++##++##+++++++++....++++##.......##.++++....++++++++##++++++++++....",
"....+##+.......##..##.......++++.##........##..##########.#..##.....++++....++++##.......##.++++............##......++++....",
"....+############..##.......++++.############...##########...##.....++++....++++##.......###########........##......++++....",
"....+###########...##.......++++.##........##.......+##+.....##.....++++....++++##........###########.......##......++++....",
"....+##+...........##.......++++.##........##.......+##+.....##.....++++....++++##..........++++...##.......##......++++....",
"....+##++++++++++++##+++....+++++##++++++++##+++....+##+.....##.....++++....++++##++++++++++++++...##+++++++##++++++++++....",
"....+##++++++++++++############++##++++++++##+++....+##+.....############..############++############+++++++##++++++++++....",
"....+##++++++++++++############++##++++++++##+++....+##+.....############..############++###########++++++++##++++++++++....",
"....++++++++++++++++++++....++++++++++++++++++++....++++............++++....++++++++++++++++++++....++++++++++++++++++++....",
"....................++++....++++....................++++....++++....++++....................++++....++++....................",
"....................++++....++++....................++++....++++....++++....................++++....++++....................",
"....................++++....++++....................++++....++++....++++....................++++....++++....................",
"....................++++....++++....................++++....++++....++++....................++++....++++....................",
"....++++++++++++++++++++....++++++++++++++++++++....++++++++++++++++++++....................++++....++++++++++++++++++++....",
"....++++++++++++++++++++....++++++++++++++++++++....++++++++++++++++++++....................++++....++++++++++++++++++++....",
"....++++++++++++++++++++....++++++++++++++++++++....++++++++++++++++++++....................++++....++++++++++++++++++++....",
"....++++++++++++++++++++....++++++++++++++++++++....++++++++++++++++++++....................++++....++++++++++++++++++++....",
"............................................................++++............................................................",
"............................................................++++............................................................",
"............................................................++++............................................................",
"............................................................++++............................................................",
"............................................................................................................................",
"............................................................................................................................",
"............................................................................................................................",
"............................................................................................................................"};
