/* XPM */
static const char *seqlist_xpm[] = {
/* columns rows colors chars-per-pixel */
"20 14 2 1 ",
"  c #None",
". c #000000",
/* pixels */

" ...........   ...  ",
" ...........   ...  ",
"                    ",
"                    ",
" ...........   ...  ",
" ...........   ...  ",
"                    ",
"                    ",
" ...........   ...  ",
" ...........   ...  ",
"                    ",
"                    ",
" ...........   ...  ",
" ...........   ...  "
};
