/* XPM */
static const char * stop_marker_xpm[] = {
"9 17 7 1",
" 	c None",
".	c #000000",
"+	c #FFC1C1",
"$	c #724B4B",
"#  c #AD6666",
"@  c #BFE8FF",
"X  c #357293",
".........",
".+++++++.",
".+#####$.",
".+#####$.",
".+#####$.",
".+#####$.",
".+#####$.",
".+#####$.",
".+#####$.",
".+#####$.",
".+#####$.",
".+#####$.",
".+#####$.",
" .@###X. ",
"  .@#X.  ",
"   .X.   ",
"    .    "};
