/* XPM */
static const char * track_solo_xpm[] = {
"17 18 4 1",
" 	c None",
".	c #7FFE00",
"@	c #000000",
"+      c #FFFFFF",
"                 ",
" @@@@@@@@@@@@@@@ ",
" @.............@ ",
" @.............@ ",
" @.............@ ",
" @...@@@@@@@...@ ",
" @...@@++++@...@ ",
" @...@+@@@@@...@ ",
" @...@+@@@@@...@ ",
" @...@@+++@@...@ ",
" @...@@@@@+@...@ ",
" @...@@@@@+@...@ ",
" @...@++++@@...@ ",
" @...@@@@@@@...@ ",
" @.............@ ",
" @.............@ ",
" @@@@@@@@@@@@@@@ ",
"                 "}; 
