/* XPM */
static const char * track_play_xpm[] = {
"17 18 3 1",
" 	c None",
".	c #FFFFFF",
"+	c #000000",
"                 ",
" +++++++++++++++ ",
" +.............+ ",
" +.............+ ",
" +.............+ ",
" +.............+ ",
" +....++++.....+ ",
" +....+...+....+ ",
" +....+...+....+ ",
" +....++++.....+ ",
" +....+........+ ",
" +....+........+ ",
" +....+........+ ",
" +.............+ ",
" +.............+ ",
" +.............+ ",
" +++++++++++++++ ",
"                 "};
