/* XPM */
static const char * track_mute_xpm[] = {
"17 18 4 1",
" 	c None",
".	c #FF4500",
"@	c #000000",
"+      c #FFFFFF",
"                 ",
" @@@@@@@@@@@@@@@ ",
" @.............@ ",
" @.............@ ",
" @.............@ ",
" @.@@@@@@@@@@@.@ ",
" @.@++@@@@@++@.@ ",
" @.@+@+@@@+@+@.@ ",
" @.@+@@+@+@@+@.@ ",
" @.@+@@@+@@@+@.@ ",
" @.@+@@@@@@@+@.@ ",
" @.@+@@@@@@@+@.@ ",
" @.@+@@@@@@@+@.@ ",
" @.@@@@@@@@@@@.@ ",
" @.............@ ",
" @.............@ ",
" @@@@@@@@@@@@@@@ ",
"                 "};
