/* XPM */
static const char *transpose_xpm[] = {
/* columns rows colors chars-per-pixel */
"30 17 4 1 ",
"  c #None",
". c #000000",
"+ c #9E9E9E",
"@ c #56BEFF",
/* pixels */
"                    +...+     ",
"                   ..+ +..    ",
"                  +.     .+   ",
"..................+.     .+.. ",
"                  +.     .+   ",
"               .   ..+ +..    ",
"               ..   +...+     ",
"           .....@.            ",
"           .@@@@@@.           ",
"           .....@.            ",
"    +...+      ..             ",
"   ..+ +..     .              ",
"  +.     .+                   ",
"..+.     .+.................. ",
"  +.     .+                   ",
"   ..+ +..                    ",
"    +...+                     "};
