/* XPM */
static const char *transportFollow_xpm[] = {
/* columns rows colors chars-per-pixel */
"18 18 5 1 ",
"  c #56BEFF",
"@ c #BFE8FF",
"# c #357293",
". c None",
"X c #000000",
/* pixels */
"..................",
"..................",
"...XXXXX.X........",
".....X...XX.......",
".....X...X@X......",
".....X...X@@X.....",
".XXXXXXXXX  @X....",
".X@@@X@@@    @X...",
".X   X        @X..",
".X   X         #X.",
".X   X        #X..",
".X   X       #X...",
".XXXXXXXXX  #X....",
".....X...X #X.....",
".....X...X#X......",
".....X...XX.......",
".....X...X........",
".................."
};
