/* XPM */
static const char * transpose_xpm[] = {
/* columns rows colors chars-per-pixel */
"20 16 2 1 ",
"  c black",
". c gray100",
/* pixels */
"....................",
"....................",
"..           .     .",
"..           .     .",
"..............  ....",
"..           .  ....",
"..           .  ....",
"..............  ....",
"..        ..    ....",
"..        .     ....",
"...........     ....",
"...........     ....",
"...........     ....",
"............   .....",
"....................",
"...................."
};
