/* XPM */
static const char *transportFollow_xpm[] = {
/* columns rows colors chars-per-pixel */
"18 18 83 1 ",
"  c #1D6A1D",
". c #247800",
"X c #256F27",
"o c #2A672A",
"O c #2F632F",
"+ c #2E642E",
"@ c #296829",
"# c #2A682A",
"$ c #2B682B",
"% c #2B6C2B",
"& c #247824",
"* c #545227",
"= c #416644",
"- c #931919",
"; c #A01818",
": c #BD1313",
"> c #C20101",
", c #D80000",
"< c #CA1F19",
"1 c #DD1516",
"2 c #DE1616",
"3 c #DB1819",
"4 c #E40000",
"5 c #E80000",
"6 c #EB0000",
"7 c #FE0000",
"8 c #C02613",
"9 c #C02B13",
"0 c #C02E13",
"q c #D02215",
"w c #C03013",
"e c #028202",
"r c #018401",
"t c #038403",
"y c #008900",
"u c #008B00",
"i c #008C00",
"p c #048E04",
"a c #009800",
"s c #009900",
"d c #009D00",
"f c #269B00",
"g c #00A500",
"h c #00A600",
"j c #00A700",
"k c #04A004",
"l c #00A900",
"z c #00AA00",
"x c #00AD00",
"c c #00AF00",
"v c #00B200",
"b c #00B900",
"n c #00BA00",
"m c #00BB00",
"M c #00BD00",
"N c #00BF00",
"B c #26AE00",
"V c #26B600",
"C c #1E8020",
"Z c #209A22",
"A c #329836",
"S c #1FB021",
"D c #20A922",
"F c #469400",
"G c #00C000",
"H c #00C200",
"J c #00C400",
"K c #00C700",
"L c #00CB00",
"P c #00CC00",
"I c #00CE00",
"U c #00CF00",
"Y c #00D000",
"T c #00D100",
"R c #00D300",
"E c #00D400",
"W c #00D500",
"Q c #00D900",
"! c #00DD00",
"~ c #00DE00",
"^ c #00E800",
"/ c #00E900",
"( c None",
/* pixels */
"((((((((((((((((((",
"((((((((((((((((((",
"(((764,;((((((((((",
"((((6>-(((((((((((",
"(((((:((((P(((((((",
"(((((1((((!/((((((",
"(((((q((((!/Q(((((",
"((PEVwSRRPERRL((((",
"((PPB9DLJHNNbbN(((",
"((PHf9Zvxxzzggp%((",
"((bd.8Ciyissst@(((",
"(((X*<=+O&zst#((((",
"(((((3((((be#(((((",
"(((((2((((k@((((((",
"(((((1(((( (((((((",
"(((((1((((((((((((",
"((((((((((((((((((",
"(((((((((((((((((("
};
