/* XPM */
static char *seq42_32_xpm[] = {
"32 32 2 1",
" 	c None",
"1	c #000000",
"                                ",
"                                ",
"  11111111  11111111  11111111  ",
"  11        11        11    11  ",
"  1         1         1      1  ",
"  11111111  11111111  1      1  ",
"  11111111  11111111  1      1  ",
"        11  1         1  11  1  ",
"  11111111  11111111  11111111  ",
"  11111111  11111111  11111111  ",
"                         11     ",
"                         11     ",
"                                ",
"                                ",
"                                ",
"                                ",
"            1      1  11111111  ",
"            1      1  11111111  ",
"            1      1        11  ",
"            11111111  11111111  ",
"            11111111  11111111  ",
"                   1  1         ",
"                   1  11        ",
"                   1  11111111  ",
"                                ",
"                                ",
"                                ",
"                                ",
"                                ",
"                                ",
"                                ",
"                                "
};
